<svg width="24" height="24" viewBox="0 0 24 24" fill="none" xmlns="http://www.w3.org/2000/svg">
<path d="M12.519 2.70312C13.6001 2.70601 14.1488 2.71177 14.6225 2.72523L14.8089 2.73195C15.0242 2.73964 15.2366 2.74925 15.4931 2.76078C16.5156 2.80883 17.2132 2.97027 17.8253 3.20762C18.4595 3.4517 18.9938 3.78226 19.5281 4.31558C20.0169 4.79579 20.3951 5.37691 20.6361 6.01836C20.8734 6.63048 21.0349 7.32812 21.0829 8.35152C21.0944 8.60712 21.104 8.81949 21.1117 9.0357L21.1175 9.22213C21.1319 9.69491 21.1377 10.2436 21.1396 11.3247L21.1406 12.0415V13.3003C21.1429 14.0013 21.1355 14.7022 21.1185 15.4029L21.1127 15.5893C21.105 15.8055 21.0954 16.0179 21.0839 16.2735C21.0358 17.2969 20.8725 17.9936 20.6361 18.6066C20.3951 19.2481 20.0169 19.8292 19.5281 20.3094C19.0479 20.7982 18.4668 21.1764 17.8253 21.4174C17.2132 21.6547 16.5156 21.8162 15.4931 21.8642L14.8089 21.893L14.6225 21.8988C14.1488 21.9123 13.6001 21.919 12.519 21.9209L11.8022 21.9219H10.5443C9.84307 21.9243 9.14184 21.917 8.44081 21.8998L8.25439 21.894C8.02627 21.8854 7.79821 21.8754 7.5702 21.8642C6.54776 21.8162 5.85012 21.6547 5.23705 21.4174C4.59594 21.1762 4.01516 20.7981 3.53523 20.3094C3.04606 19.8293 2.6676 19.2482 2.4263 18.6066C2.18895 17.9945 2.02751 17.2969 1.97947 16.2735L1.95064 15.5893L1.94583 15.4029C1.92812 14.7022 1.92011 14.0013 1.92181 13.3003V11.3247C1.91915 10.6237 1.9262 9.92284 1.94295 9.22213L1.94968 9.0357C1.95737 8.81949 1.96698 8.60712 1.97851 8.35152C2.02655 7.32812 2.18799 6.63144 2.42534 6.01836C2.66721 5.37664 3.04632 4.79551 3.53619 4.31558C4.01584 3.82699 4.59628 3.44888 5.23705 3.20762C5.85012 2.97027 6.5468 2.80883 7.5702 2.76078C7.82581 2.74925 8.03914 2.73964 8.25439 2.73195L8.44081 2.72619C9.14152 2.70911 9.84243 2.70175 10.5433 2.70409L12.519 2.70312ZM11.5312 7.50781C10.2569 7.50781 9.03481 8.01402 8.13376 8.91507C7.23271 9.81613 6.7265 11.0382 6.7265 12.3125C6.7265 13.5868 7.23271 14.8089 8.13376 15.7099C9.03481 16.611 10.2569 17.1172 11.5312 17.1172C12.8055 17.1172 14.0276 16.611 14.9286 15.7099C15.8297 14.8089 16.3359 13.5868 16.3359 12.3125C16.3359 11.0382 15.8297 9.81613 14.9286 8.91507C14.0276 8.01402 12.8055 7.50781 11.5312 7.50781ZM11.5312 9.42969C11.9098 9.42962 12.2846 9.50413 12.6344 9.64894C12.9842 9.79376 13.302 10.0061 13.5698 10.2737C13.8375 10.5414 14.0499 10.8591 14.1949 11.2089C14.3398 11.5586 14.4144 11.9334 14.4145 12.312C14.4145 12.6906 14.34 13.0655 14.1952 13.4153C14.0504 13.765 13.8381 14.0829 13.5705 14.3506C13.3028 14.6184 12.9851 14.8308 12.6353 14.9757C12.2856 15.1206 11.9107 15.1952 11.5321 15.1953C10.7676 15.1953 10.0343 14.8916 9.49369 14.351C8.95306 13.8103 8.64934 13.0771 8.64934 12.3125C8.64934 11.5479 8.95306 10.8147 9.49369 10.274C10.0343 9.73341 10.7676 9.42969 11.5321 9.42969M16.5771 6.06641C16.2585 6.06641 15.953 6.19296 15.7277 6.41822C15.5024 6.64348 15.3759 6.94901 15.3759 7.26758C15.3759 7.58615 15.5024 7.89167 15.7277 8.11693C15.953 8.3422 16.2585 8.46875 16.5771 8.46875C16.8956 8.46875 17.2012 8.3422 17.4264 8.11693C17.6517 7.89167 17.7782 7.58615 17.7782 7.26758C17.7782 6.94901 17.6517 6.64348 17.4264 6.41822C17.2012 6.19296 16.8956 6.06641 16.5771 6.06641Z" fill="white"/>
</svg>
