<svg width="13" height="14" viewBox="0 0 13 14" fill="none" xmlns="http://www.w3.org/2000/svg">
<path d="M10.8437 2.38126C10.2707 1.80246 9.58824 1.34355 8.83602 1.03129C8.08381 0.719028 7.27695 0.559669 6.4625 0.562507C3.05 0.562507 0.26875 3.34376 0.26875 6.75626C0.26875 7.85001 0.55625 8.91251 1.09375 9.85001L0.21875 13.0625L3.5 12.2C4.40625 12.6938 5.425 12.9563 6.4625 12.9563C9.875 12.9563 12.6562 10.175 12.6562 6.76251C12.6562 5.10626 12.0125 3.55001 10.8437 2.38126ZM6.4625 11.9063C5.5375 11.9063 4.63125 11.6563 3.8375 11.1875L3.65 11.075L1.7 11.5875L2.21875 9.68751L2.09375 9.49376C1.57984 8.67311 1.30696 7.72453 1.30625 6.75626C1.30625 3.91876 3.61875 1.60626 6.45625 1.60626C7.83125 1.60626 9.125 2.14376 10.0937 3.11876C10.5734 3.59623 10.9536 4.16417 11.2121 4.78965C11.4707 5.41512 11.6025 6.0857 11.6 6.76251C11.6125 9.60001 9.3 11.9063 6.4625 11.9063ZM9.2875 8.05626C9.13125 7.98126 8.36875 7.60626 8.23125 7.55001C8.0875 7.50001 7.9875 7.47501 7.88125 7.62501C7.775 7.78126 7.48125 8.13126 7.39375 8.23126C7.30625 8.33751 7.2125 8.35001 7.05625 8.26876C6.9 8.19376 6.4 8.02501 5.8125 7.50001C5.35 7.08751 5.04375 6.58126 4.95 6.42501C4.8625 6.26876 4.9375 6.18751 5.01875 6.10626C5.0875 6.03751 5.175 5.92501 5.25 5.83751C5.325 5.75001 5.35625 5.68126 5.40625 5.58126C5.45625 5.47501 5.43125 5.38751 5.39375 5.31251C5.35625 5.23751 5.04375 4.47501 4.91875 4.16251C4.79375 3.86251 4.6625 3.90001 4.56875 3.89376H4.26875C4.1625 3.89376 4 3.93126 3.85625 4.08751C3.71875 4.24376 3.31875 4.61876 3.31875 5.38126C3.31875 6.14376 3.875 6.88126 3.95 6.98126C4.025 7.08751 5.04375 8.65001 6.59375 9.31876C6.9625 9.48126 7.25 9.57501 7.475 9.64376C7.84375 9.76251 8.18125 9.74376 8.45 9.70625C8.75 9.66251 9.36875 9.33126 9.49375 8.96876C9.625 8.60626 9.625 8.30001 9.58125 8.23126C9.5375 8.16251 9.44375 8.13126 9.2875 8.05626Z" fill="white"/>
</svg>
